<svg xmlns="http://www.w3.org/2000/svg" xmlns:xlink="http://www.w3.org/1999/xlink" viewBox="0 0 138.75 44.75"><defs><style>.cls-1{fill:#fff;stroke-miterlimit:10;stroke-width:0.75px;stroke:url(#New_Gradient_Swatch);}.cls-2{fill:url(#New_Gradient_Swatch-2);}</style><linearGradient id="New_Gradient_Swatch" y1="22.38" x2="138.75" y2="22.38" gradientUnits="userSpaceOnUse"><stop offset="0" stop-color="#ad1dbd"/><stop offset="0.29" stop-color="#5365db"/><stop offset="0.41" stop-color="#4578e3"/><stop offset="0.51" stop-color="#388aea"/><stop offset="0.77" stop-color="#1fbef4"/></linearGradient><linearGradient id="New_Gradient_Swatch-2" x1="11.95" y1="22.28" x2="117.83" y2="22.28" xlink:href="#New_Gradient_Swatch"/></defs><g id="Layer_2" data-name="Layer 2"><g id="Layer_1-2" data-name="Layer 1"><path class="cls-1" d="M49.38.38v44H4.75A4.24,4.24,0,0,1,.38,40.27V4.48A4.23,4.23,0,0,1,4.75.38Zm83.92,0H49.38v44H133.3c2.8,0,5.08-1.84,5.08-4.11V4.48C138.38,2.21,136.1.38,133.3.38Z"/><path class="cls-2" d="M69.45,10.1h2.87c1.77,0,3.13.63,3.13,2.52s-1.36,2.66-3.13,2.66H71V18.6H69.45Zm2.71,4c1.17,0,1.8-.48,1.8-1.45s-.63-1.31-1.8-1.31H71v2.76Zm-.13.81,1.1-.9,2.65,4.62H74.09Zm4.88,0V10.1h1.51V15c0,1.85.69,2.46,1.72,2.46S81.9,16.84,81.9,15V10.1h1.45v4.78c0,2.79-1.24,3.88-3.21,3.88S76.91,17.67,76.91,14.88Zm8.36-4.78h1.55l2.64,4.78.88,1.81h.06c-.08-.87-.2-2-.2-2.9V10.1h1.44v8.5H90.09l-2.64-4.78L86.57,12h0c.07.9.19,1.92.19,2.87V18.6H85.27ZM93,17.51l.88-1a3.35,3.35,0,0,0,2.22,1c.95,0,1.48-.44,1.48-1.1s-.55-.92-1.32-1.25l-1.16-.5a2.44,2.44,0,0,1-1.72-2.26A2.58,2.58,0,0,1,96.25,10,3.71,3.71,0,0,1,98.87,11l-.77,1a2.74,2.74,0,0,0-1.85-.73c-.8,0-1.33.37-1.33,1s.65.92,1.35,1.21l1.15.48a2.36,2.36,0,0,1,1.72,2.29c0,1.38-1.14,2.53-3,2.53A4.38,4.38,0,0,1,93,17.51Zm9.43-3.19c0-2.75,1.54-4.37,3.75-4.37S110,11.58,110,14.32s-1.53,4.44-3.75,4.44S102.45,17.07,102.45,14.32Zm6,0c0-1.91-.86-3.06-2.2-3.06s-2.2,1.15-2.2,3.06.87,3.13,2.2,3.13S108.4,16.23,108.4,14.32Zm3.07-4.22H113l2.64,4.78.88,1.81h0c-.07-.87-.19-2-.19-2.9V10.1h1.43v8.5h-1.55l-2.64-4.78L112.76,12h-.05c.07.9.19,1.92.19,2.87V18.6h-1.43Zm-41,14.67H74c2.35,0,4,.72,4,2.77s-1.68,2.92-4,2.92H71.9v4.16H70.44Zm3.39,4.67c1.79,0,2.78-.62,2.78-1.9s-1-1.75-2.78-1.75H71.9v3.65Zm-.08.67,1.15-.65,3.51,5.16H76.75Zm10-5.34h1.65l3.89,9.85H87.77l-2-5.5c-.41-1.1-.78-2.18-1.15-3.32h-.07c-.35,1.14-.72,2.22-1.14,3.32l-2,5.5h-1.5Zm-1.85,5.85h5.3v1h-5.3Zm10-5.85h2.88c3.54,0,5.44,1.76,5.44,4.89s-1.9,5-5.37,5h-3Zm2.77,8.82c2.69,0,4-1.44,4-3.93s-1.35-3.86-4-3.86h-1.3v7.79Zm9.08-8.82h1.47v9.85h-1.47Zm7.72,4.76-3.13-4.76H110l1.57,2.52c.29.45.53.86.89,1.43h.07c.31-.57.54-1,.81-1.43l1.53-2.52h1.55l-3.14,4.82,3.36,5H115L113.33,32l-1-1.59h-.07L111.37,32l-1.67,2.65h-1.54Zm-89.38-.79c-.2-.27-.31-.4-.4-.54-1.32-1.82-2.63-3.65-3.94-5.47a1.92,1.92,0,0,0-1.55-1c-1.26,0-2.51,0-3.77,0-.36,0-.54.11-.52.5,0,.61,0,1.22,0,1.82,0,.39.15.52.52.51.88,0,1.76,0,2.63,0a1.21,1.21,0,0,1,.81.4c1.22,1.61,2.39,3.25,3.57,4.89.57.77,1.11,1.56,1.68,2.32a1.51,1.51,0,0,0,1.43.76A1.45,1.45,0,0,0,23.77,32c1-2.34,2.05-4.69,3.08-7,1.43-3.25,2.89-6.5,4.3-9.77a.83.83,0,0,1,.92-.6c2.19,0,4.39,0,6.59,0,.55,0,.75-.19.71-.73a13.7,13.7,0,0,1,0-1.57c0-.41-.16-.54-.56-.53H30.6a1.48,1.48,0,0,0-1.45,1c-.72,1.66-1.45,3.31-2.18,5l-3,6.86C23.39,26,22.8,27.25,22.13,28.74Zm-.4-.54c-1.32-1.82-2.63-3.65-3.94-5.47a1.92,1.92,0,0,0-1.55-1c-1.26,0-2.51,0-3.77,0-.36,0-.54.11-.52.5,0,.61,0,1.22,0,1.82,0,.39.15.52.52.51.88,0,1.76,0,2.63,0a1.21,1.21,0,0,1,.81.4c1.22,1.61,2.39,3.25,3.57,4.89.57.77,1.11,1.56,1.68,2.32a1.51,1.51,0,0,0,1.43.76A1.45,1.45,0,0,0,23.77,32c1-2.34,2.05-4.69,3.08-7,1.43-3.25,2.89-6.5,4.3-9.77a.83.83,0,0,1,.92-.6c2.19,0,4.39,0,6.59,0,.55,0,.75-.19.71-.73a13.7,13.7,0,0,1,0-1.57c0-.41-.16-.54-.56-.53H30.6a1.48,1.48,0,0,0-1.45,1c-.72,1.66-1.45,3.31-2.18,5l-3,6.86c-.58,1.32-1.17,2.62-1.84,4.11C21.93,28.47,21.82,28.34,21.73,28.2Z"/></g></g></svg>